<?xml version="1.0" encoding="UTF-8" standalone="no"?>
<svg
   xmlns:dc="http://purl.org/dc/elements/1.1/"
   xmlns:cc="http://creativecommons.org/ns#"
   xmlns:rdf="http://www.w3.org/1999/02/22-rdf-syntax-ns#"
   xmlns:svg="http://www.w3.org/2000/svg"
   xmlns="http://www.w3.org/2000/svg"
   xmlns:sodipodi="http://sodipodi.sourceforge.net/DTD/sodipodi-0.dtd"
   xmlns:inkscape="http://www.inkscape.org/namespaces/inkscape"
   height="512.66669"
   viewBox="0 0 691.25 384.5"
   width="921.66669"
   version="1.1"
   id="svg7315"
   sodipodi:docname="nature.svg"
   inkscape:version="0.92.5 (2060ec1f9f, 2020-04-08)">
  <metadata
     id="metadata7321">
    <rdf:RDF>
      <cc:Work
         rdf:about="">
        <dc:format>image/svg+xml</dc:format>
        <dc:type
           rdf:resource="http://purl.org/dc/dcmitype/StillImage" />
        <dc:title></dc:title>
      </cc:Work>
    </rdf:RDF>
  </metadata>
  <defs
     id="defs7319" />
  <sodipodi:namedview
     pagecolor="#ffffff"
     bordercolor="#666666"
     borderopacity="1"
     objecttolerance="10"
     gridtolerance="10"
     guidetolerance="10"
     inkscape:pageopacity="0"
     inkscape:pageshadow="2"
     inkscape:window-width="1920"
     inkscape:window-height="1001"
     id="namedview7317"
     showgrid="false"
     units="px"
     inkscape:zoom="0.69140625"
     inkscape:cx="524.12891"
     inkscape:cy="454.11767"
     inkscape:window-x="-9"
     inkscape:window-y="-9"
     inkscape:window-maximized="1"
     inkscape:current-layer="svg7315" />
  <path
     d="m 767.24608,170.76286 c -6.66405,12.8125 -20.05077,21.55859 -35.48436,21.55859 -16.38281,0 -30.45704,-9.86328 -36.62111,-23.98047 -6.16796,14.11719 -20.24217,23.98047 -36.63671,23.98047 -16.38282,0 -30.45704,-9.86328 -36.62109,-23.98047 -6.16797,14.11719 -20.24219,23.98047 -36.62501,23.98047 -16.39452,0 -30.46875,-9.86328 -36.63281,-23.98047 -6.16797,14.11719 -20.24219,23.98047 -36.625,23.98047 -16.38281,0 -30.45703,-9.86328 -36.625,-23.98047 -6.16406,14.11719 -20.23828,23.98047 -36.63281,23.98047 -16.38281,0 -30.45703,-9.86328 -36.625,-23.98047 -6.16406,14.11719 -20.23828,23.98047 -36.6211,23.98047 -16.39454,0 -30.46875,-9.86328 -36.63672,-23.98047 -6.16406,14.11719 -20.23828,23.98047 -36.62109,23.98047 -15.4336,0 -28.82032,-8.74609 -35.48438,-21.55859 0.34375,-4.48047 0.79297,-8.92188 1.36719,-13.33203 1.5039,-11.67969 3.79297,-23.11329 6.82422,-34.2422 7.13671,-6.6875 16.73828,-10.78125 27.29297,-10.78125 16.38281,0 30.45703,9.875 36.62109,23.99219 6.16797,-14.11719 20.24218,-23.99219 36.63672,-23.99219 16.38282,0 30.45704,9.875 36.6211,23.99219 6.16797,-14.11719 20.24219,-23.99219 36.625,-23.99219 16.39453,0 30.46875,9.875 36.63281,23.99219 6.16797,-14.11719 20.24219,-23.99219 36.625,-23.99219 16.38281,0 30.45703,9.875 36.625,23.99219 6.16406,-14.11719 20.23829,-23.99219 36.63281,-23.99219 16.38282,0 30.45704,9.875 36.62501,23.99219 6.16407,-14.11719 20.23827,-23.99219 36.62109,-23.99219 16.39454,0 30.46875,9.875 36.63671,23.99219 6.16407,-14.11719 20.2383,-23.99219 36.62111,-23.99219 10.55469,0 20.15625,4.09375 27.29297,10.78125 3.03124,11.12891 5.3203,22.56251 6.82422,34.2422 0.57421,4.41015 1.02343,8.85156 1.36717,13.33203 z m 0,0"
     id="path7267-0"
     inkscape:connector-curvature="0"
     style="fill:#0a9327;stroke-width:1" />
  <path
     d="m 507.66102,193.5823 c 0,35.25391 -7.125,68.85937 -20.01953,99.43359 C 448.82118,385.00808 357.78211,449.5823 251.66102,449.5823 145.53993,449.5823 54.500862,385.00808 15.680548,293.01589 2.7860175,262.44167 -4.3389825,228.83621 -4.3389825,193.5823 c 0,-5.01563 0.144531,-10.01172 0.429688,-14.95313 0.480468,-8.28515 1.347656,-16.45703 2.589843,-24.5039 C 17.657111,31.477837 123.69227,-62.4167 251.66102,-62.4167 c 127.96875,0 234.00391,93.894537 252.98047,216.54197 1.24219,8.04687 2.10937,16.21875 2.58984,24.5039 0.28516,4.94141 0.42969,9.9375 0.42969,14.95313 z m 0,0"
     id="path7257"
     style="fill:none;fill-opacity:1"
     inkscape:connector-curvature="0" />
  <path
     d="M 451.12196,168.26604 H 154.0243 c -4.41797,0 -8.11719,-1.57812 -10.875,-4.05468 -7.12891,-6.38672 -7.99609,-18.76563 1.19922,-25.50782 l 83.76953,-61.39785 c 4.09766,-2.996112 9.23828,-3.8633 13.94141,-2.589854 1.91015,0.5 3.75,1.367186 5.41015,2.589854 l 26.58203,19.488298 c 6.53125,4.784552 15.58985,4.073622 21.29688,-1.683596 l 49.64453,-50.070375 c 4.92969,-4.97267 12.24609,-6.11331 18.27344,-3.42579 1.80859,0.79297 3.5,1.94141 4.97265,3.42579 l 94.51172,95.335403 c 10.24219,10.33594 2.92578,27.89062 -11.6289,27.89062 z m 0,0"
     id="path7261"
     inkscape:connector-curvature="0"
     style="fill:#757177" />
  <path
     d="m 363.26649,41.614227 c -7.21094,-3.01174 -24.23047,23.550815 -30.125,36.027391 -5.90235,12.484398 10.88672,10.898452 6.57422,18.6094 -4.30469,7.722052 -36.3125,42.893932 -36.3125,42.893932 l -28.36719,9.98828 -12.58984,-12.60156 3.13281,-11.39063 29.76953,-30.030648 49.64453,-50.070375 c 4.92969,-4.97267 12.24609,-6.11331 18.27344,-3.42579 z m 0,0"
     id="path7263"
     inkscape:connector-curvature="0"
     style="fill:#2f373b" />
  <path
     d="m 242.05946,74.715836 c -9.91797,-2.976562 -37.14844,79.409584 -37.14844,79.409584 l -61.76172,10.08594 c -7.12891,-6.38672 -7.99609,-18.76563 1.19922,-25.50782 l 83.76953,-61.39785 c 4.09766,-2.996112 9.23828,-3.8633 13.94141,-2.589854 z m 0,0"
     id="path7265"
     inkscape:connector-curvature="0"
     style="fill:#2f373b" />
  <path
     d="m 506.90711,173.86468 c -6.66406,12.8125 -20.05078,21.55859 -35.48437,21.55859 -16.38281,0 -30.45703,-9.86328 -36.6211,-23.98047 -6.16796,14.11719 -20.24218,23.98047 -36.63671,23.98047 -16.38282,0 -30.45704,-9.86328 -36.6211,-23.98047 -6.16797,14.11719 -20.24218,23.98047 -36.625,23.98047 -16.39453,0 -30.46875,-9.86328 -36.63281,-23.98047 -6.16797,14.11719 -20.24219,23.98047 -36.625,23.98047 -16.38281,0 -30.45703,-9.86328 -36.625,-23.98047 -6.16406,14.11719 -20.23828,23.98047 -36.63281,23.98047 -16.38281,0 -30.45703,-9.86328 -36.625,-23.98047 -6.16406,14.11719 -20.23828,23.98047 -36.6211,23.98047 -16.39453,0 -30.468748,-9.86328 -36.636717,-23.98047 -6.164063,14.11719 -20.238281,23.98047 -36.621094,23.98047 -15.433594,0 -28.8203125,-8.74609 -35.4843755,-21.55859 0.34375,-4.48047 0.792969,-8.92188 1.367188,-13.33203 1.50390604,-11.67969 3.792968,-23.11328 6.8242181,-34.24219 7.1367184,-6.6875 16.7382814,-10.78125 27.2929694,-10.78125 16.382813,0 30.457031,9.875 36.621094,23.99219 6.167969,-14.11719 20.242187,-23.99219 36.636717,-23.99219 16.38282,0 30.45704,9.875 36.6211,23.99219 6.16797,-14.11719 20.24219,-23.99219 36.625,-23.99219 16.39453,0 30.46875,9.875 36.63281,23.99219 6.16797,-14.11719 20.24219,-23.99219 36.625,-23.99219 16.38281,0 30.45703,9.875 36.625,23.99219 6.16406,-14.11719 20.23828,-23.99219 36.63281,-23.99219 16.38282,0 30.45703,9.875 36.625,23.99219 6.16407,-14.11719 20.23828,-23.99219 36.6211,-23.99219 16.39453,0 30.46875,9.875 36.63671,23.99219 6.16407,-14.11719 20.23829,-23.99219 36.6211,-23.99219 10.55469,0 20.15625,4.09375 27.29297,10.78125 3.03125,11.12891 5.32031,22.5625 6.82422,34.24219 0.57421,4.41015 1.02343,8.85156 1.36718,13.33203 z m 0,0"
     id="path7267"
     inkscape:connector-curvature="0"
     style="fill:#0a9327" />
  <path
     d="m 702.91525,193.58343 c 0,141.38672 -158.32173,256 -353.62711,256 -195.30539,0 -353.6271225,-114.61328 -353.6271225,-256 0,-13.41797 1.4299189,-26.59375 4.17104702,-39.45703 H 698.74421 c 2.74112,12.86328 4.17104,26.03906 4.17104,39.45703 z m 0,0"
     id="path7269"
     inkscape:connector-curvature="0"
     style="fill:#2cce5a;stroke:none;stroke-width:1.17531097" />
  <path
     d="m 420.73524,141.31667 c -4.32031,-0.35937 -7.75781,-3.46484 -8.73438,-7.45703 -2.76172,3.04297 -7.26562,4.12891 -11.23437,2.37891 -3.96875,-1.75 -6.20313,-5.80078 -5.82422,-9.89063 -3.60156,1.97266 -8.20703,1.53516 -11.39063,-1.40234 -3.18359,-2.94141 -3.98046,-7.49609 -2.30078,-11.24219 -4.04297,0.70703 -8.26562,-1.19922 -10.32812,-5.00781 -2.06641,-3.82031 -1.33985,-8.39453 1.47265,-11.393934 -4.0625,-0.652338 -7.4375,-3.82813 -8.14062,-8.113288 -0.70313,-4.273438 1.46484,-8.355478 5.09375,-10.277352 -3.625,-1.929686 -5.78516,-6.015634 -5.07031,-10.289084 0.71093,-4.281248 4.08984,-7.44923 8.15234,-8.093758 -2.80469,-3.003902 -3.51953,-7.58204 -1.44922,-11.39454 2.07031,-3.8086 6.28906,-5.703137 10.33594,-4.988297 -1.67188,-3.75001 -0.86328,-8.3043 2.32422,-11.23389 3.1914,-2.937504 7.80078,-3.359379 11.39844,-1.375 -0.375,-4.09766 1.87109,-8.148441 5.83984,-9.890629 3.97266,-1.738281 8.47656,-0.640625 11.23828,2.410156 0.98047,-3.992187 4.42188,-7.09375 8.74609,-7.445312 4.31641,-0.351563 8.20704,2.140625 9.82422,5.910156 2.22266,-3.453125 6.47657,-5.273438 10.67969,-4.210938 4.20703,1.0625 7.08594,4.691407 7.39453,8.792969 3.22266,-2.546875 7.84375,-2.878906 11.47266,-0.503906 3.62109,2.375 5.16015,6.734374 4.125,10.706944 3.87109,-1.35938 8.34375,-0.1836 11.0039,3.23007 2.66797,3.42188 2.71094,8.050799 0.4375,11.476589 4.11329,-0.0352 7.97266,2.531254 9.37891,6.636724 1.40625,4.109378 -0.0586,8.500016 -3.32422,11.00002 3.89063,1.304676 6.69922,4.980466 6.69922,9.316416 v 0.0586 0.0781 c -0.0117,4.328128 -2.82031,8.003918 -6.71484,9.300784 3.25781,2.500004 4.71484,6.902362 3.29687,11 -1.41797,4.10097 -5.27734,6.66347 -9.39062,6.62051 2.26562,3.42578 2.21094,8.05468 -0.45703,11.46875 -2.67188,3.41406 -7.14844,4.58203 -11.01954,3.21093 1.03125,3.97657 -0.51562,8.33594 -4.14453,10.70313 -3.63672,2.37109 -8.2539,2.02734 -11.47656,-0.53125 -0.3125,4.10156 -3.19922,7.73047 -7.41015,8.78515 -4.20313,1.05469 -8.45704,-0.77343 -10.66797,-4.23437 -1.52344,3.52344 -5.03125,5.92578 -9.00782,5.92578 -0.27734,0 -0.55078,-0.0117 -0.82812,-0.0352 z m 0,0"
     id="path7271"
     inkscape:connector-curvature="0"
     style="fill:#21bf4a" />
  <path
     d="m 420.82899,21.645808 c 1.66797,-0.730469 3.33594,-1.078125 4.84765,-1.078125 2.09375,0 3.89844,0.671875 5.01563,1.957031 -1.51953,-3.535156 -5.03125,-5.949218 -9.01953,-5.949218 -0.26953,0 -0.53906,0.01172 -0.8086,0.03516 -2.16015,0.175781 -4.10546,1.039062 -5.625,2.359375 -1.52343,1.316406 -2.6289,3.089843 -3.12109,5.085937 -1.86719,-2.066406 -4.53906,-3.238281 -7.30078,-3.238281 -1.31641,0 -2.65234,0.269531 -3.9375,0.828125 -3.67969,1.617188 -5.88281,5.21875 -5.88281,9.003905 0,0.29297 0.0156,0.58984 0.043,0.88672 -1.47266,-0.8125 -3.10938,-1.21875 -4.75,-1.21875 -2.375,0 -4.75782,0.85547 -6.64844,2.59375 -2.10547,1.93741 -3.17578,4.58194 -3.17578,7.23388 0,1.36329 0.28125,2.72657 0.85156,4.00001 -0.56641,-0.0977 -1.12891,-0.14844 -1.69531,-0.14844 -3.48438,0 -6.85547,1.859387 -8.63672,5.136737 -0.8125,1.492186 -1.19531,3.097662 -1.19531,4.683598 0,2.468754 0.92968,4.878908 2.63671,6.710942 -2.02734,0.32422 -3.88671,1.273446 -5.32812,2.683604 -1.44141,1.406256 -2.46484,3.26953 -2.82422,5.410154 -0.0898,0.54689 -0.13281,1.089858 -0.13281,1.628916 0,3.65625 2.04297,6.976572 5.20312,8.660168 -3.16406,1.675784 -5.22265,5.007816 -5.22265,8.671886 0,0.527338 0.043,1.062498 0.13281,1.605466 0.35156,2.140624 1.37109,4.00782 2.8125,5.417986 1.4375,1.410146 3.29687,2.367174 5.32812,2.691392 -1.71484,1.832026 -2.65625,4.253314 -2.65625,6.729874 0,1.57813 0.38282,3.17969 1.1875,4.66797 1.77344,3.28516 5.15625,5.15234 8.64844,5.15234 0.55469,0 1.1211,-0.0469 1.67969,-0.14843 -0.57422,1.28125 -0.85938,2.65625 -0.85938,4.02343 0,2.64844 1.0625,5.28516 3.16016,7.22266 1.89063,1.74219 4.27734,2.60547 6.66016,2.60547 1.63281,0 3.26562,-0.40625 4.72656,-1.20703 -0.0273,0.30078 -0.0391,0.60156 -0.0391,0.89844 0,3.77343 2.1875,7.375 5.86328,8.99218 1.28906,0.57032 2.63672,0.83985 3.96094,0.83985 2.74609,0 5.40625,-1.16407 7.27734,-3.21875 0.97266,3.99218 4.41016,7.09765 8.73047,7.46093 0.27734,0.0234 0.55469,0.0312 0.82812,0.0312 1.98828,0 3.85938,-0.60156 5.42578,-1.64062 0.54688,-0.36719 1.0586,-0.78516 1.52344,-1.25 -0.76562,0.21094 -1.57031,0.3125 -2.39062,0.3125 -1.77344,0 -3.64453,-0.45703 -5.40625,-1.23438 -3.67578,-1.61718 -5.86719,-6.33593 -5.86719,-10.27343 0,-0.3125 0.0156,-0.61719 0.043,-0.91797 -1.46485,0.80078 -3.09375,1.20703 -4.72656,1.20703 -2.38282,0 -4.77344,-0.85938 -6.66016,-2.60547 -2.09766,-1.9375 -3.16016,-4.57422 -3.16016,-7.22266 0,-1.36718 0.28516,-2.74218 0.85938,-4.01953 -0.5586,0.0977 -1.125,0.14453 -1.6836,0.14453 -3.48828,0 -6.87109,-1.86718 -8.64843,-5.15234 -0.80078,-1.48437 -1.1836,-3.08984 -1.1836,-4.66797 0,-2.47656 0.9375,-4.893938 2.65625,-6.729874 -2.03125,-0.324218 -3.89062,-1.281246 -5.32812,-2.691392 -1.44141,-1.410166 -2.46094,-3.273452 -2.8125,-5.417986 -0.0899,-0.539058 -0.13281,-1.074218 -0.13281,-1.605466 0,-3.66407 2.05859,-6.996102 5.22656,-8.671886 -3.16016,-1.683596 -5.20703,-5.003918 -5.20703,-8.660168 0,-0.539058 0.043,-1.082026 0.13281,-1.628916 0.35937,-2.136724 1.38281,-4.003898 2.82031,-5.410154 1.44141,-1.406248 3.30469,-2.359384 5.33203,-2.683604 -1.70703,-1.828124 -2.63672,-4.242188 -2.63672,-6.707042 0,-1.585936 0.38282,-3.195312 1.19141,-4.687498 1.78125,-3.27735 5.15625,-5.132827 8.64063,-5.132827 0.5664,0 1.1289,0.0469 1.6914,0.14453 -0.5664,-1.26953 -0.84765,-2.63672 -0.84765,-4.00001 0,-2.65194 1.07031,-5.29647 3.17578,-7.23388 1.88672,-1.73828 4.26953,-2.59375 6.64843,-2.59375 1.63672,0 3.27735,0.41016 4.75,1.21875 -0.0273,-0.29297 -0.0391,-0.58984 -0.0391,-0.88281 0,-3.785159 2.19531,-7.390627 5.87891,-9.007815 z m 0,0"
     id="path7273"
     inkscape:connector-curvature="0"
     style="fill:#17aa3d" />
  <path
     d="m 456.46961,162.14984 h -60.26562 c 12.03125,0 16.34765,-10.23438 16.34765,-13.75782 v -28.70703 c 1.03516,0.63281 2.20704,1.08594 3.47657,1.29688 0.27734,0.0469 0.55078,0.0781 0.82422,0.10156 0.27343,0.0273 0.54687,0.0391 0.82031,0.0391 3.64844,0 6.96875,-2.03906 8.65234,-5.1875 1.67578,3.1836 5.01172,5.2461 8.6875,5.2461 0.52344,0 1.05469,-0.043 1.58985,-0.13282 1.28906,-0.20703 2.47656,-0.66015 3.52343,-1.30078 v 28.64844 c 0,3.51953 4.31641,13.75391 16.34375,13.75391 z m 0,0"
     id="path7275"
     inkscape:connector-curvature="0"
     style="fill:#ab5816" />
  <path
     d="m 417.67274,121.12249 c 1.28906,0 2.53906,-0.25781 3.6914,-0.72656 v 27.99609 c 0,3.52344 -1.55859,13.75782 -5.89843,13.75782 h -19.25782 c 12.02735,0 16.34375,-10.23438 16.34375,-13.75782 v -28.70703 c 1.03516,0.63281 2.20704,1.08594 3.47657,1.29688 0.27734,0.0469 0.55078,0.0781 0.82422,0.10156 0.27734,0.0273 0.55078,0.0391 0.82031,0.0391 z m 0,0"
     id="path7277"
     inkscape:connector-curvature="0"
     style="fill:#8c3e09" />
  <path
     d="m 58.528206,141.31667 c -4.320313,-0.35937 -7.757813,-3.46484 -8.730469,-7.45703 -2.765625,3.04297 -7.269531,4.12891 -11.238281,2.37891 -3.964844,-1.75 -6.203126,-5.80078 -5.824219,-9.89063 -3.601564,1.97266 -8.203126,1.53516 -11.38672,-1.40234 -3.183594,-2.94141 -3.984375,-7.49609 -2.300781,-11.24219 -4.046875,0.70703 -8.26953,-1.19922 -10.3281244,-5.00781 -2.066406,-3.82031 -1.34375,-8.39453 1.4687504,-11.393934 C 6.1258616,96.649308 2.7508615,93.473516 2.0477365,89.188358 1.3446115,84.91492 3.5125796,80.83288 7.1414866,78.911006 3.5164866,76.98132 1.3563295,72.895372 2.0711735,68.621922 c 0.714844,-4.281248 4.0898441,-7.44923 8.1523445,-8.093758 -2.8046884,-3.003902 -3.5156254,-7.58204 -1.4453124,-11.39454 2.0664064,-3.8086 6.2890614,-5.703137 10.3320304,-4.988297 -1.671875,-3.75001 -0.863281,-8.3043 2.328125,-11.23389 3.191406,-2.937504 7.796875,-3.359379 11.394532,-1.375 -0.371094,-4.09766 1.871094,-8.148441 5.839844,-9.890629 3.976562,-1.738281 8.480469,-0.640625 11.238281,2.410156 0.980469,-3.992187 4.425781,-7.09375 8.746094,-7.445312 4.316406,-0.351563 8.207031,2.140625 9.828125,5.910156 2.21875,-3.453125 6.476562,-5.273438 10.675781,-4.210938 4.207031,1.0625 7.089844,4.691407 7.394531,8.792969 3.226563,-2.546875 7.843747,-2.878906 11.472657,-0.503906 3.625004,2.375 5.164064,6.734374 4.125004,10.706944 3.875,-1.35938 8.34765,-0.1836 11.00781,3.23007 2.66797,3.42188 2.71094,8.050799 0.4375,11.476589 4.11328,-0.0352 7.96875,2.531254 9.37891,6.636724 1.40625,4.109378 -0.0586,8.500016 -3.32422,11.00002 3.89062,1.304676 6.69922,4.980466 6.69922,9.316416 v 0.0586 0.0781 c -0.0117,4.328128 -2.82032,8.003918 -6.71485,9.300784 3.25782,2.500004 4.71485,6.902362 3.29688,11 -1.41797,4.10097 -5.27735,6.66347 -9.39063,6.62051 2.26563,3.42578 2.21094,8.05468 -0.46093,11.46875 -2.66797,3.41406 -7.14454,4.58203 -11.01563,3.21093 1.03125,3.97657 -0.51562,8.33594 -4.144534,10.70313 -3.63672,2.37109 -8.253906,2.02734 -11.476562,-0.53125 -0.3125,4.10156 -3.199218,7.73047 -7.410156,8.78515 -4.203125,1.05469 -8.457031,-0.77343 -10.667969,-4.23437 -1.523437,3.52344 -5.03125,5.92578 -9.011719,5.92578 -0.273437,0 -0.550781,-0.0117 -0.828124,-0.0352 z m 0,0"
     id="path7279"
     inkscape:connector-curvature="0"
     style="fill:#21bf4a" />
  <path
     d="m 58.621956,21.645808 c 1.667968,-0.730469 3.335937,-1.078125 4.847656,-1.078125 2.09375,0 3.902344,0.671875 5.015625,1.957031 -1.519531,-3.535156 -5.03125,-5.949218 -9.019531,-5.949218 -0.265626,0 -0.539063,0.01172 -0.808594,0.03516 -2.160156,0.175781 -4.101563,1.039062 -5.625,2.359375 -1.523438,1.316406 -2.628906,3.089843 -3.121094,5.085937 -1.867188,-2.066406 -4.535156,-3.238281 -7.300781,-3.238281 -1.3125,0 -2.652344,0.269531 -3.9375,0.828125 -3.679688,1.617188 -5.878907,5.21875 -5.878907,9.003905 0,0.29297 0.01172,0.58984 0.03906,0.88672 -1.468751,-0.8125 -3.109376,-1.21875 -4.746095,-1.21875 -2.378906,0 -4.761719,0.85547 -6.648437,2.59375 -2.109375,1.93741 -3.175782,4.58194 -3.175782,7.23388 0,1.36329 0.28125,2.72657 0.847657,4.00001 -0.5625,-0.0977 -1.128907,-0.14844 -1.691407,-0.14844 -3.484374,0 -6.859373,1.859387 -8.6406234,5.136737 -0.808594,1.492186 -1.195313,3.097662 -1.195313,4.683598 0,2.468754 0.933594,4.878908 2.6406254,6.710942 -2.0312504,0.32422 -3.8906254,1.273446 -5.3320314,2.683604 -1.4414071,1.406256 -2.4648441,3.26953 -2.8203131,5.410154 -0.08984,0.54689 -0.136718,1.089858 -0.136718,1.628916 0,3.65625 2.0468741,6.976572 5.2070311,8.660168 -3.167966,1.675784 -5.2226541,5.007816 -5.2226541,8.671886 0,0.527338 0.03906,1.062498 0.128907,1.605466 0.351562,2.140624 1.375,4.00782 2.8164061,5.417986 1.4375,1.410146 3.292969,2.367174 5.3281254,2.691392 -1.7187504,1.832026 -2.6562504,4.253314 -2.6562504,6.729874 0,1.57813 0.378906,3.17969 1.183594,4.66797 1.7734374,3.28516 5.1562494,5.15234 8.6484364,5.15234 0.558594,0 1.121094,-0.0469 1.679688,-0.14843 -0.574219,1.28125 -0.859375,2.65625 -0.859375,4.02343 0,2.64844 1.0625,5.28516 3.164062,7.22266 1.886719,1.74219 4.277344,2.60547 6.660156,2.60547 1.632813,0 3.261719,-0.40625 4.726564,-1.20703 -0.02734,0.30078 -0.04297,0.60156 -0.04297,0.89844 0,3.77343 2.1875,7.375 5.863282,8.99218 1.289062,0.57032 2.636718,0.83985 3.960937,0.83985 2.75,0 5.410156,-1.16407 7.277344,-3.21875 0.972656,3.99218 4.410156,7.09765 8.730469,7.46093 0.277343,0.0234 0.554687,0.0312 0.828124,0.0312 1.992188,0 3.859376,-0.60156 5.429688,-1.64062 0.542969,-0.36719 1.054688,-0.78516 1.519531,-1.25 -0.761719,0.21094 -1.566406,0.3125 -2.390625,0.3125 -1.773437,0 -3.644531,-0.45703 -5.40625,-1.23438 -3.675781,-1.61718 -5.863281,-6.33593 -5.863281,-10.27343 0,-0.3125 0.01563,-0.61719 0.03906,-0.91797 -1.464844,0.80078 -3.09375,1.20703 -4.726563,1.20703 -2.382813,0 -4.773437,-0.85938 -6.660156,-2.60547 -2.097657,-1.9375 -3.160157,-4.57422 -3.160157,-7.22266 0,-1.36718 0.285157,-2.74218 0.859376,-4.01953 -0.558594,0.0977 -1.121094,0.14453 -1.679688,0.14453 -3.492188,0 -6.871095,-1.86718 -8.648439,-5.15234 -0.804687,-1.48437 -1.1875,-3.08984 -1.1875,-4.66797 0,-2.47656 0.941407,-4.893938 2.65625,-6.729874 -2.03125,-0.324218 -3.890624,-1.281246 -5.328124,-2.691392 -1.441407,-1.410166 -2.460938,-3.273452 -2.8125,-5.417986 -0.08984,-0.539058 -0.132813,-1.074218 -0.132813,-1.605466 0,-3.66407 2.058594,-6.996102 5.226563,-8.671886 -3.160157,-1.683596 -5.207032,-5.003918 -5.207032,-8.660168 0,-0.539058 0.04687,-1.082026 0.136719,-1.628916 0.355469,-2.136724 1.378906,-4.003898 2.820313,-5.410154 1.441406,-1.406248 3.300781,-2.359384 5.332031,-2.683604 -1.710938,-1.828124 -2.640625,-4.242188 -2.640625,-6.707042 0,-1.585936 0.386718,-3.195312 1.195312,-4.687498 1.777344,-3.27735 5.152345,-5.132827 8.63672,-5.132827 0.566406,0 1.128906,0.0469 1.695313,0.14453 -0.566407,-1.26953 -0.851563,-2.63672 -0.851563,-4.00001 0,-2.65194 1.070313,-5.29647 3.175781,-7.23388 1.890625,-1.73829 4.273438,-2.59375 6.648438,-2.59375 1.640625,0 3.277344,0.41015 4.75,1.21875 -0.02734,-0.29297 -0.03906,-0.58985 -0.03906,-0.88282 0,-3.785153 2.195313,-7.390621 5.878907,-9.007809 z m 0,0"
     id="path7281"
     inkscape:connector-curvature="0"
     style="fill:#17aa3d" />
  <path
     d="M 94.266486,162.14984 H 34.000862 c 12.027344,0 16.34375,-10.23438 16.34375,-13.75782 v -28.70703 c 1.035156,0.63281 2.210937,1.08594 3.480468,1.29688 0.273438,0.0469 0.546876,0.0781 0.820313,0.10156 0.277344,0.0273 0.550781,0.0391 0.824219,0.0391 3.644531,0 6.964844,-2.03906 8.648437,-5.1875 1.675781,3.1836 5.011719,5.2461 8.6875,5.2461 0.523438,0 1.054688,-0.043 1.589844,-0.13282 1.289063,-0.20703 2.476563,-0.66015 3.523437,-1.30078 v 28.64844 c 0,3.51953 4.316407,13.75391 16.347656,13.75391 z m 0,0"
     id="path7283"
     inkscape:connector-curvature="0"
     style="fill:#ab5816" />
  <path
     d="m 55.469612,121.12249 c 1.285156,0 2.539062,-0.25781 3.6875,-0.72656 v 27.99609 c 0,3.52344 -1.554688,13.75782 -5.898438,13.75782 H 34.000862 c 12.027344,0 16.34375,-10.23438 16.34375,-13.75782 v -28.70703 c 1.035156,0.63281 2.210937,1.08594 3.480468,1.29688 0.273438,0.0469 0.546876,0.0781 0.820313,0.10156 0.277344,0.0273 0.550781,0.0391 0.824219,0.0391 z m 0,0"
     id="path7285"
     inkscape:connector-curvature="0"
     style="fill:#8c3e09" />
  <path
     d="m 104.78211,149.31667 c -4.59765,-0.38671 -8.253904,-3.6875 -9.289064,-7.9375 -2.945309,3.23829 -7.734372,4.39454 -11.960934,2.53516 -4.21875,-1.86328 -6.597656,-6.17578 -6.195313,-10.52734 -3.832031,2.09765 -8.730469,1.63672 -12.117187,-1.49219 -3.390625,-3.12891 -4.242188,-7.97656 -2.449219,-11.96484 -4.308594,0.7539 -8.800781,-1.27344 -10.992187,-5.32813 -2.199219,-4.0625 -1.429688,-8.93359 1.566406,-12.125 -4.324219,-0.69141 -7.914063,-4.069716 -8.664063,-8.632204 -0.746093,-4.542988 1.558594,-8.890646 5.417969,-10.933622 -3.855469,-2.054684 -6.152344,-6.402352 -5.394531,-10.94922 0.757812,-4.554698 4.351562,-7.9297 8.675781,-8.613298 -2.984375,-3.19922 -3.742188,-8.066418 -1.539062,-12.125016 2.203124,-4.05469 6.691406,-6.066413 10.996093,-5.308606 -1.78125,-3.992197 -0.917969,-8.835547 2.472657,-11.952647 3.398437,-3.125 8.300781,-3.57813 12.128906,-1.46485 -0.398438,-4.359371 1.988281,-8.671871 6.214844,-10.523434 4.230468,-1.855469 9.019531,-0.6875 11.95703,2.5625 1.04687,-4.25 4.707034,-7.550781 9.308594,-7.921875 4.58985,-0.375 8.73047,2.277344 10.45703,6.289062 2.35938,-3.675781 6.89063,-5.613281 11.35938,-4.484374 4.47656,1.132812 7.54297,4.996093 7.86719,9.359374 3.43359,-2.707031 8.34765,-3.0625 12.21093,-0.535156 3.85547,2.527344 5.49219,7.167973 4.38672,11.394033 4.125,-1.44881 8.88281,-0.19531 11.71485,3.43752 2.83593,3.644537 2.88671,8.570323 0.46484,12.214863 4.37891,-0.0391 8.48047,2.695314 9.98047,7.062502 1.49609,4.371098 -0.0625,9.042986 -3.53906,11.703148 4.14453,1.386718 7.1289,5.300786 7.1289,9.914074 v 0.0586 0.0859 c -0.008,4.609378 -3,8.515638 -7.14453,9.894544 3.46875,2.667972 5.01563,7.347062 3.51172,11.706432 -1.51172,4.36719 -5.61719,7.08985 -9.99219,7.04688 2.41016,3.64453 2.34766,8.57031 -0.49219,12.20312 -2.83984,3.63672 -7.60546,4.87891 -11.72265,3.41797 1.09765,4.23047 -0.55078,8.87109 -4.41406,11.39063 -3.86719,2.51953 -8.78125,2.15625 -12.21094,-0.56641 -0.33203,4.36328 -3.40625,8.22656 -7.88281,9.34766 -4.47657,1.12109 -9,-0.82422 -11.35547,-4.50782 -1.61719,3.75 -5.35156,6.3086 -9.58594,6.3086 -0.28906,-0.004 -0.58203,-0.0156 -0.87891,-0.0391 z m 0,0"
     id="path7287"
     inkscape:connector-curvature="0"
     style="fill:#21bf4a" />
  <path
     d="m 104.87977,21.970027 c 1.77734,-0.773438 3.55078,-1.148438 5.16016,-1.148438 2.23047,0 4.15234,0.71875 5.33593,2.082031 -1.61718,-3.757812 -5.35156,-6.328124 -9.59765,-6.328124 -0.28516,0 -0.57031,0.01172 -0.85938,0.03516 -2.30078,0.183594 -4.36718,1.105468 -5.984374,2.511718 -1.625,1.402344 -2.80078,3.289063 -3.32422,5.414063 -1.98437,-2.203129 -4.824218,-3.445317 -7.765624,-3.445317 -1.398438,0 -2.824219,0.28125 -4.191406,0.878907 -3.917969,1.722656 -6.257813,5.554687 -6.257813,9.57812 0,0.31641 0.01563,0.62891 0.04687,0.94922 -1.566406,-0.86328 -3.308594,-1.29687 -5.054688,-1.29687 -2.53125,0 -5.066406,0.91015 -7.074218,2.75781 -2.242188,2.06241 -3.378906,4.8745 -3.378906,7.69874 0,1.44922 0.300781,2.90235 0.902343,4.257817 -0.601562,-0.10547 -1.199219,-0.15625 -1.800781,-0.15625 -3.707031,0 -7.296875,1.976564 -9.191406,5.464856 -0.863282,1.585934 -1.273438,3.29688 -1.273438,4.980466 0,2.628912 0.992188,5.195326 2.808594,7.14455 -2.160156,0.34375 -4.140625,1.355468 -5.671875,2.855464 -1.535156,1.496106 -2.625,3.48048 -3.003906,5.757834 -0.09766,0.582028 -0.144531,1.160146 -0.144531,1.730456 0,3.890638 2.175781,7.4258 5.539062,9.214864 -3.371094,1.785156 -5.558594,5.332036 -5.558594,9.226576 0,0.566408 0.04687,1.136716 0.140625,1.710946 0.375,2.281244 1.460938,4.261708 2.996094,5.765604 1.527344,1.49941 3.503906,2.51894 5.667969,2.86269 -1.828125,1.95313 -2.828125,4.52735 -2.828125,7.16407 0,1.67968 0.40625,3.38281 1.261719,4.96484 1.890624,3.49219 5.488281,5.48438 9.203124,5.48438 0.59375,0 1.195313,-0.0508 1.789063,-0.15625 -0.609375,1.35937 -0.914063,2.82421 -0.914063,4.28125 0,2.8164 1.132813,5.62109 3.363282,7.68359 2.011718,1.85547 4.554687,2.77344 7.089844,2.77344 1.738281,0 3.472656,-0.4336 5.03125,-1.28516 -0.02734,0.32031 -0.04688,0.63672 -0.04688,0.95313 0,4.01953 2.328126,7.85156 6.242188,9.57421 1.371094,0.60157 2.804688,0.89063 4.214844,0.89063 2.921875,0 5.753903,-1.23438 7.742183,-3.42578 1.03516,4.25 4.695314,7.55469 9.289064,7.9375 0.29688,0.0273 0.59375,0.0352 0.88282,0.0352 2.11718,0 4.10547,-0.63671 5.77343,-1.74609 0.58204,-0.39062 1.125,-0.83203 1.6211,-1.32812 -0.8125,0.22265 -1.66797,0.32812 -2.54297,0.32812 -1.88672,0 -3.875,-0.48047 -5.75,-1.30859 -3.91406,-1.72657 -6.242194,-6.74219 -6.242194,-10.9336 0,-0.33203 0.0156,-0.66015 0.043,-0.97656 -1.55859,0.85156 -3.29297,1.28516 -5.03125,1.28516 -2.535153,0 -5.078122,-0.91797 -7.085935,-2.77344 -2.234374,-2.0625 -3.363281,-4.86719 -3.363281,-7.68359 0,-1.45704 0.304688,-2.92188 0.914063,-4.28125 -0.59375,0.10546 -1.195313,0.15625 -1.789063,0.15625 -3.714843,0 -7.3125,-1.98829 -9.203125,-5.48438 -0.855468,-1.58203 -1.261718,-3.28906 -1.261718,-4.96484 0,-2.63672 1,-5.21094 2.828124,-7.16407 -2.164062,-0.34375 -4.140624,-1.36328 -5.671874,-2.86269 -1.53125,-1.503896 -2.617188,-3.48436 -2.992188,-5.765604 -0.09375,-0.57423 -0.140625,-1.144538 -0.140625,-1.710946 0,-3.89454 2.1875,-7.44142 5.5625,-9.226576 -3.363281,-1.789064 -5.542969,-5.324226 -5.542969,-9.214864 0,-0.57031 0.04687,-1.148428 0.144532,-1.730456 0.378906,-2.277354 1.46875,-4.261728 3,-5.757834 1.535156,-1.499996 3.515624,-2.511714 5.671874,-2.855464 -1.816406,-1.949224 -2.804687,-4.515638 -2.804687,-7.14064 0,-1.687496 0.40625,-3.398442 1.269531,-4.984376 1.894532,-3.488292 5.484375,-5.464856 9.195313,-5.464856 0.601562,0 1.199219,0.0508 1.800781,0.15625 -0.60549,-1.355517 -0.906271,-2.808647 -0.906271,-4.257867 0,-2.82424 1.140625,-5.63633 3.382812,-7.69874 2.007813,-1.84766 4.542969,-2.75781 7.074216,-2.75781 1.74219,0 3.48828,0.43359 5.05078,1.29687 -0.0273,-0.3164 -0.0391,-0.6289 -0.0391,-0.94531 -0.004,-4.023437 2.332034,-7.859374 6.250004,-9.58203 z m 0,0"
     id="path7289"
     inkscape:connector-curvature="0"
     style="fill:#17aa3d" />
  <path
     d="M 142.80946,171.48577 H 78.680549 c 12.800781,0 17.394527,-10.89453 17.394527,-14.64062 v -30.54688 c 1.10157,0.67188 2.34766,1.15235 3.69922,1.37891 0.296884,0.0469 0.585944,0.082 0.878914,0.10937 0.29297,0.0234 0.58203,0.0391 0.875,0.0391 3.8789,0 7.41406,-2.17188 9.20312,-5.51953 1.78516,3.38671 5.33594,5.57812 9.2461,5.57812 0.55859,0 1.125,-0.043 1.6914,-0.13672 1.3711,-0.22265 2.63672,-0.70312 3.75,-1.38672 v 30.48438 c 0,3.74609 4.59375,14.64062 17.39063,14.64062 z m 0,0"
     id="path7291"
     inkscape:connector-curvature="0"
     style="fill:#ab5816" />
  <path
     d="m 101.5243,127.82562 c 1.3711,0 2.70313,-0.27344 3.92578,-0.76953 v 29.78906 c 0,3.74609 -1.65625,14.64062 -6.273434,14.64062 H 78.680549 c 12.800781,0 17.394527,-10.89453 17.394527,-14.64062 v -30.54688 c 1.10157,0.67188 2.35157,1.15235 3.70313,1.37891 0.292974,0.0469 0.582034,0.082 0.875004,0.10937 0.29297,0.0234 0.58203,0.0391 0.87109,0.0391 z m 0,0"
     id="path7293"
     inkscape:connector-curvature="0"
     style="fill:#8c3e09" />
  <path
     d="m 757.15254,193.58343 c 0,35.25391 -12.04608,68.85937 -33.84658,99.43359 H -74.627995 c -21.800498,-30.57422 -33.846575,-64.17968 -33.846575,-99.43359 0,-5.01563 0.24435,-10.01172 0.72646,-14.95313 h 864.17419 c 0.4821,4.94141 0.72646,9.9375 0.72646,14.95313 z m 0,0"
     id="path7295"
     inkscape:connector-curvature="0"
     style="fill:#0084a6;stroke-width:1.30026078" />
  <g
     id="g7307"
     style="fill:#17aa3d"
     transform="matrix(1.4449152,0,0,1,-4.3389825,-62.4167)">
    <path
       d="M 512,256 H 0 c 0,-5.01563 0.144531,-10.01172 0.429688,-14.95313 H 511.57031 C 511.85547,245.98828 512,250.98437 512,256 Z m 0,0"
       id="path7305"
       inkscape:connector-curvature="0" />
  </g>
  <path
     d="m 354.47743,242.97405 c -42.89454,0 -120.50782,18.38282 -57.1875,25.52735 63.30859,7.14844 44.92968,24.51562 4.07421,24.51562 H 143.07508 c 116.42188,0 62.29297,-28.60156 3.0586,-28.60156 -29.61328,0 -50.039074,-22.46484 65.37109,-22.46484 115.39844,0 82.37109,-20.48828 49.20312,-20.48828 -66.6875,0 -65.32812,-27.87891 2.875,-27.87891 h 68.42969 c -37.67969,2.52344 -58.3164,21.81641 -14.30469,21.81641 62.86719,0 79.66016,27.57421 36.76954,27.57421 z m 0,0"
     id="path7309"
     inkscape:connector-curvature="0"
     style="fill:#69b8d4" />
  <path
     d="m 190.38758,223.34124 c 0,-3.00781 -13.61328,-5.44531 -30.41015,-5.44531 -16.79688,0 -30.41016,2.4375 -30.41016,5.44531 0,3.00781 13.61328,5.44922 30.41016,5.44922 16.79687,0 30.41015,-2.4414 30.41015,-5.44922 z m 0,0"
     id="path7311"
     inkscape:connector-curvature="0"
     style="fill:#69b8d4" />
  <path
     d="m 406.44227,257.38421 c 0,-3.00781 -13.61719,-5.44922 -30.41406,-5.44922 -16.79297,0 -30.41016,2.44141 -30.41016,5.44922 0,3.00781 13.61719,5.44531 30.41016,5.44531 16.79687,0 30.41406,-2.4375 30.41406,-5.44531 z m 0,0"
     id="path7313"
     inkscape:connector-curvature="0"
     style="fill:#69b8d4" />
  <rect
     style="fill:#2cce5a;fill-opacity:1;stroke:none;stroke-width:5.32816935;stroke-linecap:round;stroke-linejoin:round;stroke-miterlimit:4;stroke-dasharray:none;stroke-opacity:1"
     id="rect7911"
     width="807.05084"
     height="331.93219"
     x="-39.050846"
     y="291.21185" />
  <path
     d="m 502.02734,136.81868 c 1.28906,0 2.53906,-0.2578 3.6914,-0.72655 v 27.99609 c 0,3.52344 -1.55859,13.75782 -5.89843,13.75782 h -19.25782 c 12.02735,0 16.34375,-10.23438 16.34375,-13.75782 v -28.70703 c 1.03516,0.6328 2.20704,1.08594 3.47657,1.29688 0.27734,0.0469 0.55078,0.0781 0.82422,0.10155 0.27734,0.0273 0.55078,0.0391 0.82031,0.0391 z m 0,0"
     id="path7277-1"
     inkscape:connector-curvature="0"
     style="fill:#8c3e09;stroke-width:1" />
  <path
     d="m 505.71874,136.09209 c -1.82368,0 -3.5921,-0.25781 -5.22236,-0.72656 v 27.99609 c 0,3.52344 2.205,13.75782 8.34473,13.75782 h 27.24478 c -17.01555,0 -23.12213,-10.23438 -23.12213,-13.75782 v -28.70703 c -1.46448,0.63281 -3.12238,1.08594 -4.91844,1.29688 -0.39236,0.0469 -0.77921,0.0781 -1.16605,0.10156 -0.39237,0.0273 -0.77921,0.0391 -1.16053,0.0391 z m 0,0"
     id="path7277-6"
     inkscape:connector-curvature="0"
     style="fill:#8c3e09;stroke-width:1.18942773" />
  <path
     d="m 505.08984,152.51287 c -4.32031,-0.35937 -7.75781,-3.46484 -8.73438,-7.45703 -2.76172,3.04296 -7.26562,4.1289 -11.23437,2.37891 -3.96875,-1.75 -6.20313,-5.80078 -5.82422,-9.89064 -3.60156,1.97267 -8.20703,1.53516 -11.39063,-1.40233 -3.18359,-2.94141 -3.98046,-7.49609 -2.30078,-11.2422 -4.04297,0.70704 -8.26562,-1.19922 -10.32812,-5.00781 -2.06641,-3.82031 -1.33985,-8.39453 1.47265,-11.39393 -4.0625,-0.65234 -7.4375,-3.82813 -8.14062,-8.11329 -0.70313,-4.27344 1.46484,-8.35548 5.09375,-10.27735 -3.625,-1.92969 -5.78516,-6.01563 -5.07031,-10.28909 0.71093,-4.28124 4.08984,-7.44923 8.15234,-8.09375 -2.80469,-3.003904 -3.51953,-7.582043 -1.44922,-11.394543 2.07031,-3.8086 6.28906,-5.703137 10.33594,-4.988297 -1.67188,-3.75001 -0.86328,-8.3043 2.32422,-11.23389 3.1914,-2.937504 7.80078,-3.359379 11.39844,-1.375 -0.375,-4.09766 1.87109,-8.148442 5.83984,-9.89063 3.97266,-1.738281 8.47656,-0.640625 11.23828,2.410157 0.98047,-3.992188 4.42188,-7.093751 8.74609,-7.445313 4.31641,-0.351563 8.20704,2.140625 9.82422,5.910156 2.22266,-3.453125 6.47657,-5.273438 10.67969,-4.210938 4.20703,1.0625 7.08594,4.691408 7.39453,8.79297 3.22266,-2.546875 7.84375,-2.878906 11.47266,-0.503907 3.62109,2.375001 5.16015,6.734375 4.125,10.706945 3.87109,-1.35938 8.34375,-0.1836 11.0039,3.23007 2.66797,3.42188 2.71094,8.050799 0.4375,11.476589 4.11329,-0.0352 7.97267,2.531255 9.37892,6.636724 1.40625,4.109377 -0.0586,8.500017 -3.32423,11.000017 3.89063,1.30468 6.69923,4.98047 6.69923,9.31642 v 0.0586 0.0781 c -0.0117,4.32813 -2.82032,8.00392 -6.71485,9.30078 3.25781,2.50001 4.71484,6.90237 3.29687,11.00001 -1.41796,4.10097 -5.27734,6.66347 -9.39062,6.62051 2.26562,3.42578 2.21094,8.05467 -0.45703,11.46875 -2.67188,3.41406 -7.14844,4.58203 -11.01954,3.21093 1.03125,3.97657 -0.51562,8.33593 -4.14453,10.70313 -3.63672,2.37109 -8.2539,2.02734 -11.47656,-0.53126 -0.3125,4.10157 -3.19922,7.73048 -7.41015,8.78516 -4.20313,1.05469 -8.45704,-0.77343 -10.66797,-4.23437 -1.52344,3.52344 -5.03125,5.92578 -9.00782,5.92578 -0.27734,0 -0.55078,-0.0117 -0.82812,-0.0352 z m 0,0"
     id="path7271-7"
     inkscape:connector-curvature="0"
     style="fill:#21bf4a;stroke-width:1" />
  <path
     d="m 503.05163,32.224105 c 1.77734,-0.741843 3.55078,-1.101524 5.16016,-1.101524 2.23047,0 4.15234,0.689389 5.33593,1.99698 -1.61718,-3.604306 -5.35156,-6.069621 -9.59765,-6.069621 -0.28516,0 -0.57031,0.01124 -0.85938,0.03372 -2.30078,0.176095 -4.36718,1.06031 -5.98437,2.409115 -1.625,1.345059 -2.80078,3.154706 -3.32422,5.1929 -1.98437,-2.113132 -4.82422,-3.304577 -7.76563,-3.304577 -1.39844,0 -2.82422,0.269761 -4.1914,0.843004 -3.91797,1.652286 -6.25782,5.327779 -6.25782,9.186857 0,0.303485 0.0156,0.603218 0.0469,0.910443 -1.5664,-0.828015 -3.30859,-1.243893 -5.05468,-1.243893 -2.53125,0 -5.06641,0.872972 -7.07422,2.645154 -2.24219,1.978162 -3.37891,4.675378 -3.37891,7.384249 0,1.390019 0.30078,2.78379 0.90234,4.083885 -0.60156,-0.10116 -1.19921,-0.149866 -1.80078,-0.149866 -3.70703,0 -7.29687,1.895822 -9.1914,5.241618 -0.86328,1.521149 -1.27344,3.162203 -1.27344,4.777015 0,2.521521 0.99219,4.983098 2.80859,6.852697 -2.16015,0.329707 -4.14062,1.300097 -5.67187,2.738818 -1.53516,1.434991 -2.625,3.338304 -3.00391,5.522628 -0.0977,0.558252 -0.14453,1.112754 -0.14453,1.659767 0,3.731707 2.17578,7.122459 5.53906,8.838439 -3.37109,1.712234 -5.55859,5.114223 -5.55859,8.849677 0,0.54326 0.0469,1.09028 0.14062,1.64105 0.375,2.18806 1.46094,4.08762 2.9961,5.53008 1.52734,1.43817 3.5039,2.41605 5.66797,2.74575 -1.82813,1.87335 -2.82813,4.34241 -2.82813,6.87143 0,1.61106 0.40625,3.24462 1.26172,4.76202 1.89062,3.34954 5.48828,5.26034 9.20312,5.26034 0.59375,0 1.19532,-0.0487 1.78907,-0.14986 -0.60938,1.30383 -0.91407,2.70883 -0.91407,4.10635 0,2.70135 1.13282,5.39148 3.36329,7.36973 2.01172,1.77967 4.55468,2.66014 7.08984,2.66014 1.73828,0 3.47266,-0.41588 5.03125,-1.23267 -0.0273,0.30723 -0.0469,0.61071 -0.0469,0.9142 0,3.85534 2.32813,7.53083 6.24219,9.18311 1.37109,0.577 2.80469,0.85424 4.21484,0.85424 2.92188,0 5.75391,-1.18395 7.74219,-3.28583 1.03516,4.07638 4.69531,7.24609 9.28906,7.61326 0.29688,0.0262 0.59375,0.0338 0.88282,0.0338 2.11718,0 4.10547,-0.61069 5.77343,-1.67476 0.58204,-0.37466 1.125,-0.79804 1.6211,-1.27386 -0.8125,0.21355 -1.66797,0.31471 -2.54297,0.31471 -1.88672,0 -3.875,-0.46085 -5.75,-1.25514 -3.91406,-1.65604 -6.24219,-6.46676 -6.24219,-10.48696 0,-0.31847 0.0156,-0.63318 0.043,-0.93667 -1.55859,0.81677 -3.29297,1.23267 -5.03126,1.23267 -2.53515,0 -5.07812,-0.88047 -7.08593,-2.66014 -2.23437,-1.97825 -3.36328,-4.66838 -3.36328,-7.36973 0,-1.39752 0.30469,-2.80252 0.91406,-4.10635 -0.59375,0.10114 -1.19531,0.14985 -1.78906,0.14985 -3.71484,0 -7.3125,-1.90705 -9.20313,-5.26034 -0.85546,-1.51739 -1.26171,-3.15469 -1.26171,-4.76203 0,-2.529 1,-4.99807 2.82812,-6.87142 -2.16406,-0.32969 -4.14062,-1.30759 -5.67187,-2.74575 -1.53125,-1.44245 -2.61719,-3.34201 -2.99219,-5.53007 -0.0937,-0.55077 -0.14063,-1.09779 -0.14063,-1.64105 0,-3.735458 2.1875,-7.137449 5.5625,-8.849681 -3.36328,-1.715982 -5.54297,-5.106733 -5.54297,-8.83844 0,-0.547012 0.0469,-1.101514 0.14454,-1.659767 0.3789,-2.184325 1.46875,-4.087638 3,-5.522628 1.53515,-1.438721 3.51562,-2.40911 5.67187,-2.738819 -1.81641,-1.869598 -2.80469,-4.331175 -2.80469,-6.848945 0,-1.618563 0.40625,-3.259617 1.26953,-4.780766 1.89454,-3.345796 5.48438,-5.241618 9.19532,-5.241618 0.60156,0 1.19922,0.04872 1.80078,0.149867 -0.60549,-1.300144 -0.90627,-2.693914 -0.90627,-4.083934 0,-2.70887 1.14062,-5.406087 3.38281,-7.384249 2.00781,-1.772182 4.54297,-2.645153 7.07422,-2.645153 1.74219,0 3.48828,0.415878 5.05078,1.243893 -0.0273,-0.303475 -0.0391,-0.603209 -0.0391,-0.906694 -0.004,-3.859081 2.33203,-7.538321 6.25,-9.190607 z m 0,0"
     id="path7289-9"
     inkscape:connector-curvature="0"
     style="fill:#17aa3d;stroke-width:0.97936213" />
</svg>
