<?xml version="1.0" encoding="UTF-8" standalone="no"?>
<!-- Generator: Adobe Illustrator 19.0.0, SVG Export Plug-In . SVG Version: 6.00 Build 0)  -->

<svg
   xmlns:dc="http://purl.org/dc/elements/1.1/"
   xmlns:cc="http://creativecommons.org/ns#"
   xmlns:rdf="http://www.w3.org/1999/02/22-rdf-syntax-ns#"
   xmlns:svg="http://www.w3.org/2000/svg"
   xmlns="http://www.w3.org/2000/svg"
   xmlns:sodipodi="http://sodipodi.sourceforge.net/DTD/sodipodi-0.dtd"
   xmlns:inkscape="http://www.inkscape.org/namespaces/inkscape"
   version="1.1"
   id="Capa_1"
   x="0px"
   y="0px"
   viewBox="0 0 493.70077 454.51968"
   xml:space="preserve"
   sodipodi:docname="rider.svg"
   width="493.70078"
   height="454.51968"
   inkscape:version="0.92.5 (2060ec1f9f, 2020-04-08)"><metadata
   id="metadata1697"><rdf:RDF><cc:Work
       rdf:about=""><dc:format>image/svg+xml</dc:format><dc:type
         rdf:resource="http://purl.org/dc/dcmitype/StillImage" /><dc:title></dc:title></cc:Work></rdf:RDF></metadata><defs
   id="defs1695" /><sodipodi:namedview
   pagecolor="#ffffff"
   bordercolor="#666666"
   borderopacity="1"
   objecttolerance="10"
   gridtolerance="10"
   guidetolerance="10"
   inkscape:pageopacity="0"
   inkscape:pageshadow="2"
   inkscape:window-width="1031"
   inkscape:window-height="1001"
   id="namedview1693"
   showgrid="false"
   inkscape:zoom="0.4609375"
   inkscape:cx="483.79661"
   inkscape:cy="256"
   inkscape:window-x="-9"
   inkscape:window-y="-9"
   inkscape:window-maximized="0"
   inkscape:current-layer="Capa_1" />
<path
   style="fill:#ffd5b3"
   d="m 286.10351,198.9396 h -54.62 c 0.495,0.535 0.805,1.245 0.805,2.032 v 35.841 h 13.19 l -32.746,32.745 c 3.03,6.737 3.097,13.47401 3.097,13.47401 v 23.285 l 82.362,-73.86601 c 4.182,-3.474 6.848,-8.712 6.848,-14.574 0,-10.459 -8.477,-18.937 -18.936,-18.937 z"
   id="path1612"
   inkscape:connector-curvature="0" />
<path
   style="fill:#08375e"
   d="m 230.68451,197.9716 h -24.304 l -25.861,25.861 c -0.391,0.391 -0.391,1.023 0,1.414 l 25.44,25.44 h 24.725 c 1.657,0 3,-1.343 3,-3 v -46.715 c 0,-1.657 -1.343,-3 -3,-3 z"
   id="path1614"
   inkscape:connector-curvature="0" />

<path
   style="fill:#000000;fill-opacity:0"
   d="m 86.186508,438.22961 c -36.831,0 -66.795,-29.964 -66.795,-66.795 0,-36.831 29.964,-66.795 66.795,-66.795 36.831002,0 66.796002,29.964 66.796002,66.795 0,36.831 -29.964,66.795 -66.796002,66.795 z m 0,-118.59 c -28.559,0 -51.795,23.235 -51.795,51.795 0,28.56 23.235,51.795 51.795,51.795 28.561002,0 51.796002,-23.235 51.796002,-51.795 0,-28.56 -23.235,-51.795 -51.796002,-51.795 z"
   id="path1618"
   inkscape:connector-curvature="0" />


<g
   id="g1628"
   transform="translate(-2.1694915,-22.76841)">
	<path
   style="fill:#008f7a;fill-opacity:1"
   d="m 186.385,401.359 c 0,-1.638 1.043,-3.136 2.595,-3.727 0.417,-0.159 0.678,-0.573 0.641,-1.018 l -0.823,-9.912 H 105.97 l 70.454,-73.299 c -0.121,-0.078 -0.235,-0.165 -0.34,-0.27 L 165.781,302.83 85.03,386.841 c -2.649,2.755 -3.446,6.458 -2.082,9.663 1.365,3.206 4.588,5.197 8.409,5.197 h 95.028 z"
   id="path1624"
   inkscape:connector-curvature="0" />
	<path
   style="fill:#008f7a;fill-opacity:1"
   d="m 438.15,265.371 c 0,-15.728 -12.795,-28.522 -28.522,-28.522 H 382.89 c 1.177,2.139 1.849,4.593 1.849,7.202 0,2.858 -0.817,5.522 -2.211,7.798 h 27.101 c 7.456,0 13.522,6.066 13.522,13.522 0,7.457 -6.066,13.523 -13.522,13.523 H 212.511 c -0.047,0.455 -0.237,0.879 -0.565,1.208 l -2.962,2.962 c -0.198,0.198 -0.304,0.47 -0.292,0.749 0.012,0.28 0.141,0.542 0.354,0.722 3.102,2.618 5.131,6.033 6.464,9.359 h 121.25 l -76.739,79.838 c 4.578,2.25 8.499,5.634 11.403,9.782 l 86.141,-89.62 h 4.725 l 42.561,103.169 c 1.194,2.894 3.989,4.642 6.937,4.642 0.953,0 1.922,-0.183 2.857,-0.569 2.895,-1.194 4.643,-3.991 4.642,-6.939 0,-0.952 -0.183,-1.92 -0.568,-2.855 l -40.202,-97.449 h 31.112 c 15.726,0.001 28.521,-12.795 28.521,-28.522 z"
   id="path1626"
   inkscape:connector-curvature="0" />
</g>
<path
   style="fill:#9ea7af"
   d="m 244.66651,346.90261 c -13.06,0 -24.225,8.08 -28.791,19.51 v 7.178 c 0,0.552 0.447,1 1,1 h 20.635 c 2.206,0 4,1.794 4,4 v 12.64 c 0,2.206 -1.794,4 -4,4 h -18.553 c 5.571,8.248 15.007,13.672 25.709,13.672 17.121,0 31,-13.879 31,-31 0,-17.12 -13.879,-31 -31,-31 z"
   id="path1630"
   inkscape:connector-curvature="0" />
<path
   style="fill:#ffb98a"
   d="m 216.87451,283.03061 c 0,0 -0.152,-15.05701 -10.138,-22.65901 l -27.438,27.43701 7.24,87.145 c 0.527,-0.19 1.086,-0.311 1.676,-0.311 h 28.66 z"
   id="path1632"
   inkscape:connector-curvature="0" />
<path
   style="fill:#ffd5b3"
   d="m 226.65951,78.877592 c 0,23.044998 18.684,41.729008 41.73,41.729008 23.046,0 41.728,-18.68401 41.728,-41.729008 V 56.853589 h -83.458 z"
   id="path1634"
   inkscape:connector-curvature="0" />
<path
   style="fill:#775436"
   d="m 226.76951,56.853589 c -0.072,1.009 -0.11,2.028 -0.11,3.056 v 18.968003 c 0,16.554 9.641,30.856998 23.614,37.601008 V 56.853589 Z"
   id="path1636"
   inkscape:connector-curvature="0" />
<path
   style="fill:#8c3e09;fill-opacity:1"
   d="m 268.39051,6.6715904 c -23.047,0 -41.73,11.4789956 -41.73,34.5249986 v 1.201 h -35.08 c -4.422,0 -8.006,3.585 -8.006,8.006 0,4.422 3.584,8.006 8.006,8.006 h 118.537 v -16.011 -0.05 c 0,-23.046003 -18.682,-35.6769986 -41.727,-35.6769986 z"
   id="path1638"
   inkscape:connector-curvature="0" />
<path
   style="opacity:0.1;enable-background:new"
   d="m 268.39051,6.6715904 c -2.045,0 -4.054,0.095 -6.021,0.276 20.336,1.936 36.004,14.2979956 36.004,35.4009986 v 0.05 16.012 h 11.744 v -16.012 -0.05 c 0,-23.046003 -18.682,-35.6769986 -41.727,-35.6769986 z"
   id="path1640"
   inkscape:connector-curvature="0" />
<path
   style="fill:#f7931e"
   d="m 242.51051,391.23061 c 0,2.75 -2.25,5 -5,5 h -49.295 c -2.75,0 -5,-2.25 -5,-5 v -12.64 c 0,-2.75 2.25,-5 5,-5 h 49.295 c 2.75,0 5,2.25 5,5 z"
   id="path1642"
   inkscape:connector-curvature="0" />
<g
   style="opacity:0.1"
   id="g1646"
   transform="translate(-2.1694915,-22.76841)">
	<path
   d="m 206,413.999 v -12.64 c 0,-2.75 2.25,-5 5,-5 h -20.615 c -2.75,0 -5,2.25 -5,5 v 12.64 c 0,2.75 2.25,5 5,5 H 211 c -2.75,0 -5,-2.25 -5,-5 z"
   id="path1644"
   inkscape:connector-curvature="0" />
</g>
<path
   style="fill:#fcdb67"
   d="m 180.46051,225.3056 61.97,-61.97 c -0.889,0.585 -1.924,0.89 -2.969,0.89 -0.842,0 -1.691,-0.198 -2.476,-0.604 -17.593,-9.11 -28.521,-27.086 -28.521,-46.914 0,-3.99 0.451,-7.98001 1.342,-11.86101 0.19,-0.832 0.577,-1.601 1.12,-2.249 -0.655,0.517 -1.294,1.065 -1.898,1.669 l -74.805,74.80501 z"
   id="path1648"
   inkscape:connector-curvature="0" />
<path
   style="opacity:0.1;enable-background:new"
   d="m 144.29051,189.1366 63.225,-63.225 c -0.38,-2.566 -0.581,-5.181 -0.581,-7.83 0,-3.99 0.451,-7.98 1.342,-11.86101 0.22,-0.961 0.711,-1.83 1.394,-2.534 -0.212,0.196 -0.435,0.373 -0.641,0.579 l -74.805,74.80501 z"
   id="path1650"
   inkscape:connector-curvature="0" />
<path
   style="fill:#ffb98a"
   d="m 379.52951,191.3936 h -30.706 l -48.611,-26.438 -60.689,-60.69001 c -4.057,-4.056 -9.472,-6.289998 -15.247,-6.289998 -5.309,0 -10.396,1.926 -14.329,5.422998 -0.837,0.745 -1.421,1.731 -1.671,2.822 -0.891,3.88101 -1.342,7.87101 -1.342,11.86101 0,19.828 10.928,37.804 28.52,46.914 0.784,0.406 1.634,0.604 2.476,0.604 1.398,0 2.779,-0.544 3.814,-1.579 l 5.473,-5.474 38.977,31.349 c 0.345,0.277 0.722,0.511 1.124,0.696 l 63.286,29.132 c 0.629,0.289 1.289,0.44 1.947,0.477 0.022,0.02 0.047,0.037 0.069,0.056 0.529,-7.794 7.022,-13.977 14.948,-13.977 8.271,0 15,6.729 15,14.999 0,0.305 -0.027,0.604 -0.046,0.904 3.931,-1.264 6.776,-4.947 6.776,-9.299 v -11.724 c 10e-4,-5.393 -4.372,-9.766 -9.769,-9.766 z"
   id="path1652"
   inkscape:connector-curvature="0" />
<circle
   style="fill:#046699"
   cx="367.5705"
   cy="221.28162"
   r="16"
   id="circle1654" />
<path
   style="fill:#775436"
   d="m 290.06251,87.181592 c -4.422,0 -8.006,-3.585 -8.006,-8.006 v -7.444 c 0,-4.422 3.584,-8.006 8.006,-8.006 4.422,0 8.006,3.584 8.006,8.006 v 7.444 c 0,4.422 -3.584,8.006 -8.006,8.006 z"
   id="path1656"
   inkscape:connector-curvature="0" />

<path
   style="fill:#046699"
   d="m 210.48251,253.7976 -75.395,-75.394 c -0.033,-0.033 -0.063,-0.068 -0.097,-0.101 l -22.031,22.032 c -8.386,8.386 -8.386,22.107 0,30.493 l 60.246,60.24601 c 0.586,0.586 1.354,0.879 2.121,0.879 0.768,0 1.535,-0.293 2.121,-0.878 l 33.034,-33.03301 c 0.563,-0.563 0.879,-1.326 0.879,-2.122 0.001,-0.796 -0.315,-1.56 -0.878,-2.122 z"
   id="path1660"
   inkscape:connector-curvature="0" />
<g
   id="g1662"
   transform="translate(-2.1694915,-22.76841)">
</g>
<g
   id="g1664"
   transform="translate(-2.1694915,-22.76841)">
</g>
<g
   id="g1666"
   transform="translate(-2.1694915,-22.76841)">
</g>
<g
   id="g1668"
   transform="translate(-2.1694915,-22.76841)">
</g>
<g
   id="g1670"
   transform="translate(-2.1694915,-22.76841)">
</g>
<g
   id="g1672"
   transform="translate(-2.1694915,-22.76841)">
</g>
<g
   id="g1674"
   transform="translate(-2.1694915,-22.76841)">
</g>
<g
   id="g1676"
   transform="translate(-2.1694915,-22.76841)">
</g>
<g
   id="g1678"
   transform="translate(-2.1694915,-22.76841)">
</g>
<g
   id="g1680"
   transform="translate(-2.1694915,-22.76841)">
</g>
<g
   id="g1682"
   transform="translate(-2.1694915,-22.76841)">
</g>
<g
   id="g1684"
   transform="translate(-2.1694915,-22.76841)">
</g>
<g
   id="g1686"
   transform="translate(-2.1694915,-22.76841)">
</g>
<g
   id="g1688"
   transform="translate(-2.1694915,-22.76841)">
</g>
<g
   id="g1690"
   transform="translate(-2.1694915,-22.76841)">
</g>
</svg>